PathFileType	4	(X/Y/Z)	Kaydara																																																																																																																									
DataRate	CameraRate	NumFrames	NumMarkers	Units	OrigDataRate	OrigDataStartFrame	OrigNumFrames																																																																																																																					
30	30	4	41	mm	30	113	128																																																																																																																					
Frame#	Time	EMLA_LFHD			EMLA_RFHD			EMLA_LBHD			EMLA_RBHD			EMLA_LFTShould			EMLA_RFTShould			EMLA_LRRShould			EMLA_RRRShould			EMLA_T10			EMLA_STRN			EMLA_TRUN			EMLA_LSHO			EMLA_LUPA			EMLA_LELB			EMLA_LFRM			EMLA_LWRA			EMLA_LWRB			EMLA_LFIN			EMLA_RSHO			EMLA_RUPA			EMLA_RELB			EMLA_RFRM			EMLA_RWRA			EMLA_RWRB			EMLA_RFIN			EMLA_LFWT			EMLA_RFWT			EMLA_LBWT			EMLA_RBWT			EMLA_LTHI			EMLA_LKNE			EMLA_LSHN			EMLA_LANK			EMLA_LHEE			EMLA_LTOE			EMLA_RTHI			EMLA_RKNE			EMLA_RSHN			EMLA_RANK			EMLA_RHEE			EMLA_RTOE		
		X1	Y1	Z1	X2	Y2	Z2	X3	Y3	Z3	X4	Y4	Z4	X5	Y5	Z5	X6	Y6	Z6	X7	Y7	Z7	X8	Y8	Z8	X9	Y9	Z9	X10	Y10	Z10	X11	Y11	Z11	X12	Y12	Z12	X13	Y13	Z13	X14	Y14	Z14	X15	Y15	Z15	X16	Y16	Z16	X17	Y17	Z17	X18	Y18	Z18	X19	Y19	Z19	X20	Y20	Z20	X21	Y21	Z21	X22	Y22	Z22	X23	Y23	Z23	X24	Y24	Z24	X25	Y25	Z25	X26	Y26	Z26	X27	Y27	Z27	X28	Y28	Z28	X29	Y29	Z29	X30	Y30	Z30	X31	Y31	Z31	X32	Y32	Z32	X33	Y33	Z33	X34	Y34	Z34	X35	Y35	Z35	X36	Y36	Z36	X37	Y37	Z37	X38	Y38	Z38	X39	Y39	Z39	X40	Y40	Z40	X41	Y41	Z41
																																																																																																																												
113	3.743	172.94777	1556.88904	1901.21078	4.25432	1546.1467	1881.43112	206.87956	1524.55505	1759.31381	13.31453	1514.00177	1732.15134	188.73997	1313.60214	1863.28354	39.03883	1296.87195	1867.78168	180.14608	1358.72208	1714.50729	29.88419	1343.94363	1720.1442	124.99502	1177.63023	1671.23169	118.05966	1241.53931	1906.66748	121.01632	1138.35213	1926.97083	308.43161	1350.24139	1802.92053	392.13924	1185.22446	1834.65332	438.38593	1059.66537	1883.79684	416.00037	954.76425	1983.72833	299.83561	931.32072	2123.83423	350.95242	863.69217	2110.57144	340.44792	894.92882	2171.57013	-79.9408	1326.30142	1793.85956	-136.06277	1143.73154	1733.91602	-148.02534	1019.28139	1669.27277	-155.16611	934.12506	1622.84317	-118.68044	735.12062	1645.6282	-160.82796	760.60509	1571.13052	-176.35323	704.4635	1599.16565	246.28834	900.99579	1870.48782	12.64448	891.26297	1902.61383	171.6544	914.46571	1679.34479	2.46389	900.00473	1715.57602	238.27543	686.03485	1634.36386	265.1688	474.72198	1607.44797	233.52566	301.41323	1531.95114	223.39067	186.20455	1379.2749	151.47738	154.10024	1290.03311	188.07077	37.8898	1440.65414	-16.43258	597.02774	1847.48611	-25.61369	458.68355	2016.19431	28.1184	257.77578	2115.7222	-5.87618	75.75701	2110.22797	51.50225	17.63155	2079.1124	20.44304	63.2964	2271.04904
114	3.777	167.93528	1555.32364	1960.44571	-0.89304	1547.42386	1940.79498	201.2394	1519.41772	1819.2337	7.4622	1512.11823	1792.28394	182.19126	1312.9216	1929.06448	31.42769	1294.47205	1931.75018	173.6511	1354.64233	1778.5318	23.94201	1339.98642	1783.10654	120.71584	1172.09183	1739.03595	110.28124	1240.98335	1972.77939	113.07761	1138.52516	1995.96359	303.99475	1346.67755	1866.28235	386.94382	1180.08415	1895.92209	433.7608	1053.29178	1943.47672	412.122	947.68135	2042.19635	300.15123	923.3754	2184.93805	349.11278	854.80217	2168.35571	341.28147	884.2205	2230.12344	-86.89095	1321.23383	1854.55933	-142.31738	1137.17178	1798.8826	-154.662	1011.10413	1737.4054	-160.93502	923.60252	1693.90274	-127.31242	726.26938	1729.48532	-165.17717	747.4688	1649.53583	-183.18705	693.42766	1679.90463	240.02157	891.95198	1944.60144	7.2915	897.88895	1969.82819	172.34226	906.67252	1751.091	-0.01854	904.11362	1782.30972	233.41013	673.22624	1712.90909	269.05224	463.76465	1688.46436	240.41954	299.90606	1593.67447	225.47306	205.87492	1427.20978	149.27317	187.18966	1343.00964	188.24389	35.23368	1451.66687	-25.56457	602.6487	1918.51028	-33.48088	466.11645	2091.50665	32.07747	256.45134	2168.48984	-8.3424	77.42422	2142.16965	45.33115	26.83403	2090.67047	31.5959	29.61083	2293.40622
115	3.81	164.41545	1559.08478	2018.16711	-4.68858	1554.47128	1999.73053	195.96062	1519.01611	1877.66571	1.96603	1515.59967	1852.02484	176.87122	1315.75439	1994.3367	26.33441	1297.86484	1994.15924	171.85787	1359.30847	1844.0123	21.21286	1341.94397	1844.08844	120.97075	1176.5139	1804.21692	104.47461	1245.02502	2037.20963	107.18762	1142.79663	2061.16425	299.41629	1351.18057	1935.40497	381.48582	1180.29625	1953.21442	427.28325	1052.02957	1994.60693	408.35278	940.97458	2088.50266	302.78843	908.61794	2234.04388	349.46571	840.4158	2211.39252	345.33554	866.27411	2275.05096	-90.92985	1323.27789	1913.97873	-146.47372	1137.15431	1866.94122	-160.93544	1007.99789	1811.08078	-166.81067	917.31979	1772.84927	-136.13203	722.56889	1824.61624	-171.0265	737.98515	1742.17682	-191.26541	687.18826	1776.29974	230.73643	890.68802	2014.05563	-2.45936	908.89244	2031.56799	178.12063	901.41159	1817.74933	2.29296	911.31874	1841.22711	228.63979	653.98972	1795.64224	272.74588	448.983	1787.47467	247.05456	297.7702	1677.29034	225.23464	229.38747	1499.37302	146.57191	228.09906	1424.50958	189.84356	47.43095	1477.82379	-39.99279	613.26271	1979.69604	-37.84878	476.49487	2151.40091	27.17455	253.23231	2201.29883	-4.58282	80.08866	2147.07977	47.49898	29.52116	2094.0274	35.56929	27.35064	2297.7681
116	3.843	163.53813	1570.17105	2073.1076	-5.89205	1565.83649	2057.51663	192.63618	1527.79434	1932.72125	-1.86374	1524.66095	1910.53284	175.23233	1326.58661	2053.59863	24.97793	1307.92999	2053.74069	170.55984	1369.58664	1903.33466	19.97181	1350.72662	1902.72919	122.31946	1184.84184	1862.62619	103.5478	1255.25826	2097.04269	106.62391	1152.87041	2120.44968	298.35161	1361.18698	1994.42352	376.79245	1189.02191	2011.28799	420.20123	1057.46033	2041.88782	405.24113	938.07808	2124.97467	306.48033	889.29962	2270.85037	351.41346	823.52524	2238.13583	351.64761	842.84447	2303.9119	-92.37378	1332.39151	1971.99783	-148.34646	1144.30748	1933.96729	-165.56007	1011.76674	1886.57898	-171.73946	917.07237	1856.90979	-143.70669	727.59689	1928.21762	-176.68455	735.34134	1846.17432	-199.26689	689.75327	1885.2211	226.33045	897.6825	2072.88361	-7.46329	920.05348	2090.06241	173.28127	907.42081	1874.89975	-1.91868	922.38289	1899.82849	222.45825	637.41898	1880.8902	275.71438	440.01125	1898.48221	246.68489	301.06701	1780.83847	223.07598	253.64086	1596.81717	136.26089	259.03746	1532.66434	206.61596	77.5559	1543.28918	-39.11878	619.76475	2020.39108	-41.94874	467.45525	2185.27817	26.71885	247.95855	2215.74982	-3.21043	79.85858	2153.35449	48.14062	31.85765	2094.41849	36.75679	26.9996	2297.51923
